<svg width="25" height="25" viewBox="0 0 25 25" fill="none" xmlns="http://www.w3.org/2000/svg">
<path d="M17.0358 14.3314C16.7763 14.198 15.4834 13.5647 15.2429 13.479C15.0025 13.3885 14.8263 13.3457 14.6525 13.6123C14.4763 13.8766 13.9763 14.4647 13.8191 14.6433C13.6668 14.8195 13.512 14.8409 13.2525 14.7099C11.7096 13.9385 10.6977 13.3338 9.68104 11.5885C9.41199 11.1242 9.95008 11.1576 10.4525 10.1552C10.5382 9.97899 10.4953 9.82899 10.4287 9.69566C10.362 9.56232 9.83818 8.27185 9.61913 7.74566C9.40723 7.23375 9.18818 7.30518 9.02866 7.29566C8.87627 7.28613 8.70246 7.28613 8.52627 7.28613C8.35008 7.28613 8.06675 7.3528 7.82627 7.61232C7.5858 7.87661 6.90723 8.51232 6.90723 9.8028C6.90723 11.0933 7.8477 12.3433 7.97627 12.5195C8.10961 12.6957 9.82627 15.3433 12.462 16.4838C14.1287 17.2028 14.781 17.2647 15.6144 17.1409C16.1215 17.0647 17.1667 16.5076 17.3834 15.8909C17.6001 15.2766 17.6001 14.7504 17.5358 14.6409C17.4715 14.5242 17.2953 14.4576 17.0358 14.3314Z" fill="white"/>
<path d="M22.0767 8.10511C21.5386 6.82654 20.7672 5.67892 19.7838 4.69321C18.8005 3.70987 17.6529 2.93606 16.3719 2.40035C15.0624 1.85035 13.6719 1.57178 12.2386 1.57178H12.191C10.7481 1.57892 9.35048 1.86463 8.0362 2.42654C6.76715 2.9694 5.62906 3.74082 4.65525 4.72416C3.68144 5.70749 2.91715 6.85035 2.38858 8.12416C1.84096 9.44321 1.56477 10.8456 1.57191 12.2884C1.57906 13.9408 1.97429 15.5813 2.71477 17.048V20.667C2.71477 21.2718 3.20525 21.7623 3.81001 21.7623H7.43144C8.8981 22.5027 10.5386 22.898 12.191 22.9051H12.241C13.6672 22.9051 15.0505 22.6289 16.3529 22.0884C17.6267 21.5575 18.7719 20.7956 19.7529 19.8218C20.7362 18.848 21.51 17.7099 22.0505 16.4408C22.6124 15.1265 22.8981 13.7289 22.9052 12.2861C22.9124 10.8361 22.6314 9.42892 22.0767 8.10511ZM18.4791 18.5337C16.81 20.1861 14.5957 21.0956 12.2386 21.0956H12.1981C10.7624 21.0884 9.3362 20.7313 8.07667 20.0599L7.87667 19.9527H4.52429V16.6003L4.41715 16.4003C3.74572 15.1408 3.38858 13.7146 3.38144 12.2789C3.37191 9.90511 4.27906 7.67654 5.94334 5.99797C7.60525 4.3194 9.82667 3.39083 12.2005 3.3813H12.241C13.4314 3.3813 14.5862 3.61225 15.6743 4.0694C16.7362 4.51463 17.6886 5.15511 18.5076 5.97416C19.3243 6.79082 19.9671 7.74559 20.4124 8.80749C20.8743 9.90749 21.1052 11.0742 21.1005 12.2789C21.0862 14.6503 20.1552 16.8718 18.4791 18.5337Z" fill="white"/>
</svg>
